<svg width="161" height="77" viewBox="0 0 161 77" fill="none" xmlns="http://www.w3.org/2000/svg">
<path d="M31.0651 27.7306C32.0499 27.2386 33.106 26.7109 34.8118 26.7109C38.3069 26.7109 41.1329 30.0094 41.1329 34.0751C41.1329 41.263 32.2587 49.9236 28.2529 49.9236L31.0438 41.5187C32.514 41.5893 34.2131 40.0459 35.0495 37.744C35.9915 35.1423 35.4808 32.567 33.905 31.9938C32.3291 31.4205 30.2778 33.0609 29.327 35.6715C28.4907 37.9733 28.7988 40.2487 29.9784 41.1395L26.6419 49.5709C25.0923 48.9711 23.226 47.6394 21.4653 45.8931L22.9179 41.5187C24.0447 41.5981 25.2244 40.7514 25.7086 39.4109L28.1737 31.8791H27.7247L24.8371 39.0669C24.8018 39.1727 24.6786 39.2257 24.573 39.1904C24.4585 39.1551 24.4057 39.0317 24.4409 38.9258L26.7651 31.8791H26.3161L23.6046 38.6083C23.5693 38.7142 23.4461 38.7671 23.3404 38.7318L23.3052 38.723C23.1908 38.6877 23.138 38.5642 23.1731 38.4584L25.3565 31.8703H24.9075L22.3544 38.1673C22.3192 38.2732 22.196 38.3261 22.0903 38.2908L22.0639 38.282C21.9495 38.2467 21.8966 38.1232 21.9318 38.0174L23.9479 31.8791H23.4989L21.0691 37.7175C20.5849 39.0669 20.9458 40.4604 21.8614 41.1307L20.4176 44.7819C17.662 41.7039 15.3994 37.6999 15.3994 34.0751C15.3994 30.0094 18.2254 26.7109 21.7117 26.7109C23.4189 26.7109 24.478 27.2395 25.4645 27.7318C26.3248 28.1612 27.1299 28.563 28.2617 28.563C29.3987 28.563 30.2047 28.1604 31.0651 27.7306Z" fill="#3C4858"/>
<path d="M56.7948 47.9922L55.1309 44.9231C53.7927 45.9021 52.7187 46.2901 51.5037 46.2901C48.889 46.2901 47.7181 44.2969 47.7181 41.0955C47.7181 37.7 49.0563 35.9626 51.0811 35.9626C52.4193 35.9626 53.4581 36.9063 54.2769 37.9558L57.1206 35.601C55.5183 33.1845 53.1676 32.3643 50.9491 32.3643C47.2955 32.3643 43.1841 34.7544 43.1841 41.2895C43.1841 46.881 46.0894 49.8884 50.9227 49.8884C53.3965 49.8884 55.4214 49.1035 56.7948 47.9922Z" fill="#3C4858"/>
<path d="M59.1807 26.7109V49.4297H63.7147V38.7406C63.7147 37.206 64.824 35.8655 66.4878 35.8655C68.2134 35.8655 68.5744 37.1708 68.5744 38.8729V49.4297H73.1083V38.185C73.1083 34.2956 71.2507 32.3642 67.826 32.3642C66.2237 32.3642 64.7623 32.9551 63.7147 34.0663V26.7109H59.1807Z" fill="#3C4858"/>
<path fill-rule="evenodd" clip-rule="evenodd" d="M80.8202 43.221C84.7731 43.0622 89.7649 42.0832 89.7649 37.1444C89.7649 34.0311 87.6431 32.3643 84.3417 32.3731C78.989 32.3731 76.2158 36.7563 76.2158 41.5629C76.2158 46.4665 78.4344 49.9325 83.9808 49.9325C87.2734 49.9325 89.5624 48.4244 89.9497 48.0981L88.6468 45.0554C87.74 45.6728 86.3314 46.4577 84.5707 46.4577C82.0967 46.4577 81.0491 44.7908 80.8202 43.221ZM80.6177 40.0195C80.7146 37.7617 81.8943 35.5745 84.1128 35.5745C85.1253 35.5745 85.7768 36.1919 85.7768 37.1709C85.7768 39.4286 82.7395 39.9578 80.6177 40.0195Z" fill="#3C4858"/>
<path d="M114.988 40.1518C114.988 37.6648 114.495 34.9836 113.878 32.8582V32.867H109.459C110.014 35.0189 110.533 37.7706 110.533 40.2841C110.533 43.0269 110.11 46.396 107.725 46.396C105.99 46.396 105.929 45.0201 105.929 43.1592V32.8582H101.395V43.6707C101.395 45.1789 100.382 46.3871 98.9121 46.3871C97.2746 46.3871 97.0809 45.0818 97.0809 43.2827V32.8582H92.5469V44.1117C92.5469 48.0011 94.5718 49.8972 98.1902 49.8972C100.277 49.8972 101.976 49.2446 103.376 47.4102C104.089 48.883 105.4 49.8972 107.813 49.8972C112.672 49.8972 114.988 46.1314 114.988 40.1518Z" fill="#3C4858"/>
<path d="M123.087 46.5899C121.494 46.5899 119.469 45.7079 118.324 44.9848L117.083 48.2038C117.999 48.8829 120.411 49.9324 123.316 49.9324C127.102 49.9324 129.681 48.0716 129.681 44.3762C129.681 40.9719 127.005 40.09 124.619 39.3403C123.149 38.8817 122.075 38.4584 122.075 37.1796C122.075 36.0948 122.955 35.6715 124.029 35.6715C125.235 35.6715 126.512 36.2976 127.85 37.4089L129.937 34.763C128.502 33.3519 126.274 32.373 123.765 32.373C120.402 32.373 117.664 34.2339 117.664 37.6999C117.664 41.1659 120.147 42.1096 122.594 42.8328L122.676 42.8573C124.048 43.2692 125.174 43.6072 125.174 44.8613C125.174 46.096 124.293 46.5899 123.087 46.5899Z" fill="#3C4858"/>
<path fill-rule="evenodd" clip-rule="evenodd" d="M136.337 43.221C140.29 43.0622 145.282 42.0832 145.282 37.1444C145.282 34.0311 143.16 32.3643 139.859 32.3731C134.506 32.3731 131.733 36.7563 131.733 41.5629C131.733 46.4665 133.951 49.9325 139.497 49.9325C142.79 49.9325 145.07 48.4244 145.467 48.0981L144.164 45.0554C143.257 45.6728 141.848 46.4577 140.087 46.4577C137.614 46.4577 136.566 44.7908 136.337 43.221ZM136.135 40.0195C136.231 37.7617 137.411 35.5745 139.63 35.5745C140.642 35.5745 141.302 36.1919 141.294 37.1709C141.294 39.4286 138.256 39.9578 136.135 40.0195Z" fill="#3C4858"/>
</svg>
