<svg width="100" height="100" viewBox="0 0 100 100" fill="none" xmlns="http://www.w3.org/2000/svg">
  <style>
    @media (prefers-color-scheme: dark) {
      path {
          fill: #fff;
      }
    }
  </style>

<path fill-rule="evenodd" clip-rule="evenodd" d="M32.6433 54.23C30.7633 56.48 27.9733 57.76 25.0433 57.73C19.8433 57.85 15.5133 53.75 15.3633 48.55C15.5133 43.34 19.8333 39.24 25.0433 39.36C27.9733 39.34 30.7533 40.62 32.6433 42.86V36.86C32.6433 36.57 32.4933 36.3 32.2433 36.15L31.3633 35.64C29.2833 34.56 26.9633 34 24.6133 34H24.0133C16.4233 34.33 10.3433 40.41 10.0133 48C9.84334 51.95 11.3033 55.8 14.0633 58.63C16.8233 61.5 20.6333 63.11 24.6133 63.09C27.0533 63.1 29.4633 62.5 31.6133 61.35L32.2533 61.01C32.5133 60.86 32.6833 60.59 32.6833 60.29V54.23H32.6433ZM63.6733 62.55V34.48H59.4233C58.7233 34.49 58.0833 34.87 57.7333 35.48L49.8333 49.31L42.0033 35.46C41.6533 34.86 41.0233 34.48 40.3233 34.46H36.1033V62.55H41.6733V46.85L47.7633 56.35C48.5133 57.52 50.0733 57.87 51.2433 57.12C51.5533 56.92 51.8133 56.66 52.0133 56.35L58.1133 46.85V62.55H63.6733ZM73.1833 40C72.8533 40.01 72.5833 40.29 72.5933 40.63L72.5833 57.06H75.4633C76.6933 57.06 77.9133 56.9 79.0933 56.57C80.1833 56.26 81.1833 55.69 82.0033 54.9C82.8033 54.14 83.3933 53.19 83.7133 52.13C84.4033 49.8 84.4033 47.33 83.7133 45C83.4033 43.91 82.8033 42.93 81.9933 42.14C81.1733 41.36 80.1733 40.79 79.0833 40.49C77.9033 40.17 76.6933 40 75.4733 40H73.2033H73.1833ZM71.9033 62.63L67.1633 65.29V36C67.1833 35.15 67.8833 34.47 68.7233 34.48H75.3233C77.1933 34.48 79.0433 34.75 80.8333 35.28C82.6933 35.84 84.3833 36.84 85.7733 38.2C87.1733 39.52 88.2233 41.17 88.8333 43C90.0033 46.57 90.0033 50.43 88.8333 54C88.2133 55.85 87.1533 57.51 85.7333 58.84C84.3633 60.19 82.6733 61.19 80.8333 61.74C79.0533 62.28 77.2033 62.55 75.3433 62.55H72.2133C72.1033 62.55 72.0033 62.58 71.9033 62.63Z" fill="#2E2D42"/>
</svg>
