<?xml version="1.0" encoding="UTF-8"?>
<svg width="136px" height="52px" viewBox="0 0 136 52" version="1.1" xmlns="http://www.w3.org/2000/svg" xmlns:xlink="http://www.w3.org/1999/xlink">
    <title>hippo_health</title>
    <g id="Page-1" stroke="none" stroke-width="1" fill="none" fill-rule="evenodd">
        <g id="hippo_health" fill="#3C4858" fill-rule="nonzero">
            <path d="M57.8481,11.177 C56.2766,11.177 54.9907,12.1766 54.4764,12.8907 L54.4764,21.8876 L50.7617,21.8876 L50.7617,1.6088 L54.4764,1.6088 L54.4764,9.0349 C55.5051,8.2351 56.8195,7.7496 58.2482,7.7496 C60.1626,7.7496 61.9057,8.6064 63.0486,9.9774 C63.963,11.0627 64.4773,12.4623 64.4773,14.8329 L64.4773,21.8876 L60.7627,21.8876 L60.7627,14.5473 C60.7627,13.1763 60.4484,12.4623 59.9341,11.9481 C59.4483,11.4626 58.7054,11.177 57.8481,11.177 Z" id="Path"></path>
            <polygon id="Path" points="68.4811 21.8876 68.4811 8.0352 72.1957 8.0352 72.1957 21.8876"></polygon>
            <path d="M70.3384,5.4932 C68.9954,5.4932 67.9096,4.465 67.9096,3.1226 C67.9096,1.7802 68.9954,0.752 70.3384,0.752 C71.6814,0.752 72.7672,1.7802 72.7672,3.1226 C72.7672,4.465 71.6814,5.4932 70.3384,5.4932 Z" id="Path"></path>
            <g id="Group" transform="translate(76.000000, 7.000000)">
                <path d="M4.2043,21.7424 L0.4897,21.7424 L0.4897,1.0352 L4.0614,1.0352 L4.0614,2.1491 C5.1472,1.2637 6.5474,0.7496 8.119,0.7496 C11.8907,0.7496 14.92,3.8914 14.92,7.9757 C14.92,9.8608 14.262,11.5745 13.177,12.8312 C11.9479,14.2593 9.9763,15.1732 7.9189,15.1732 C6.5188,15.1732 5.3187,14.7734 4.2043,13.9165 L4.2043,21.7424 Z M7.6332,4.177 C6.2045,4.177 4.9758,4.8625 4.2043,5.8907 L4.2043,10.0321 C4.9186,11.0604 6.1473,11.7458 7.5475,11.7458 C9.6334,11.7458 11.205,10.1464 11.205,7.9757 C11.205,5.9764 9.8048,4.177 7.6332,4.177 Z" id="Shape"></path>
                <path d="M21.784,21.7424 L18.069,21.7424 L18.069,1.0352 L21.641,1.0352 L21.641,2.1491 C22.727,1.2637 24.127,0.7496 25.699,0.7496 C29.471,0.7496 32.499,3.8914 32.499,7.9757 C32.499,9.8608 31.842,11.5745 30.756,12.8312 C29.528,14.2593 27.556,15.1732 25.499,15.1732 C24.099,15.1732 22.898,14.7734 21.784,13.9165 L21.784,21.7424 Z M25.213,4.177 C23.784,4.177 22.556,4.8625 21.784,5.8907 L21.784,10.0321 C22.498,11.0604 23.727,11.7458 25.127,11.7458 C27.213,11.7458 28.785,10.1464 28.785,7.9757 C28.785,5.9764 27.385,4.177 25.213,4.177 Z" id="Shape"></path>
                <path d="M42.157,15.1732 C37.957,15.1732 34.785,11.9743 34.785,7.9757 C34.785,3.977 37.957,0.7496 42.157,0.7496 C46.358,0.7496 49.53,3.977 49.53,7.9757 C49.53,11.9743 46.358,15.1732 42.157,15.1732 Z M42.157,4.177 C39.986,4.177 38.5,5.8907 38.5,7.9757 C38.5,10.0607 39.986,11.7458 42.157,11.7458 C44.329,11.7458 45.815,10.0607 45.815,7.9757 C45.815,5.8907 44.329,4.177 42.157,4.177 Z" id="Shape"></path>
            </g>
            <path d="M57.8481,35.8222 C56.2766,35.8222 54.9907,36.8219 54.4764,37.5359 L54.4764,46.5328 L50.7617,46.5328 L50.7617,26.254 L54.4764,26.254 L54.4764,33.6801 C55.5051,32.8803 56.8195,32.3948 58.2482,32.3948 C60.1626,32.3948 61.9057,33.2516 63.0486,34.6226 C63.963,35.7079 64.4773,37.1075 64.4773,39.4781 L64.4773,46.5328 L60.7627,46.5328 L60.7627,39.1925 C60.7627,37.8215 60.4484,37.1075 59.9341,36.5934 C59.4483,36.1078 58.7054,35.8222 57.8481,35.8222 L57.8481,35.8222 Z" id="Path"></path>
            <path d="M74.3959,43.8195 C75.9675,43.8195 77.2248,42.9341 77.882,42.22 L79.9965,44.3336 C78.6535,45.933 76.4533,46.8185 74.3102,46.8185 C70.167,46.8185 67.0524,43.9623 67.0524,39.6209 C67.0524,35.7651 69.6812,32.3948 73.7959,32.3948 C77.6248,32.3948 80.3393,35.6223 80.3393,39.4781 C80.3393,39.8494 80.3108,40.2207 80.2536,40.5349 L70.6527,40.5349 C70.8527,42.4771 72.4243,43.8195 74.3959,43.8195 Z M73.7959,35.3938 C72.2529,35.3938 70.9956,36.5648 70.8242,37.8215 L76.539,37.8215 C76.4247,36.5934 75.3103,35.3938 73.7959,35.3938 Z" id="Shape"></path>
            <path d="M93.195,32.6804 L96.767,32.6804 L96.767,46.5328 L93.195,46.5328 L93.195,45.4189 C92.053,46.39 90.738,46.8185 89.338,46.8185 C87.2806,46.8185 85.3376,45.9045 84.1089,44.4764 C83.0231,43.2197 82.3373,41.506 82.3373,39.6209 C82.3373,35.5366 85.3662,32.3948 89.138,32.3948 C90.71,32.3948 92.11,32.9089 93.195,33.7943 L93.195,32.6804 Z M89.709,43.391 C91.11,43.391 92.338,42.7056 93.053,41.6773 L93.053,37.5359 C92.281,36.5077 91.052,35.8222 89.624,35.8222 C87.4521,35.8222 86.052,37.6216 86.052,39.6209 C86.052,41.7916 87.6235,43.391 89.709,43.391 L89.709,43.391 Z" id="Shape"></path>
            <polygon id="Path" points="100.774 26.254 104.489 26.254 104.489 46.5328 100.774 46.5328"></polygon>
            <path d="M116.841,43.5339 C117.384,43.5339 118.098,43.4482 118.355,43.391 L118.927,46.5328 C118.441,46.7042 117.327,46.8185 116.612,46.8185 C114.383,46.8185 112.755,46.0759 111.812,44.8191 C111.097,43.8766 110.783,42.6484 110.783,40.6777 L110.783,35.8222 L106.926,35.8222 L106.926,32.6804 L110.783,32.6804 L110.783,28.8246 L114.498,28.8246 L114.498,32.6804 L119.07,32.6804 L119.07,35.8222 L114.498,35.8222 L114.498,41.1061 C114.498,41.963 114.641,42.4771 114.955,42.8484 C115.326,43.2768 115.926,43.5339 116.841,43.5339 L116.841,43.5339 Z" id="Path"></path>
            <path d="M128.887,35.8222 C127.316,35.8222 126.03,36.8219 125.516,37.5359 L125.516,46.5328 L121.801,46.5328 L121.801,26.254 L125.516,26.254 L125.516,33.6801 C126.544,32.8803 127.859,32.3948 129.287,32.3948 C131.202,32.3948 132.945,33.2516 134.088,34.6226 C135.002,35.7079 135.517,37.1075 135.517,39.4781 L135.517,46.5328 L131.802,46.5328 L131.802,39.1925 C131.802,37.8215 131.488,37.1075 130.973,36.5934 C130.487,36.1078 129.745,35.8222 128.887,35.8222 L128.887,35.8222 Z" id="Path"></path>
            <path d="M5.3386,49.5332 C5.3386,48.1961 4.237,47.1735 2.9779,47.1735 C1.6402,47.1735 0.6172,48.1961 0.6172,49.5332 C0.6172,50.8704 1.7189,51.8929 2.9779,51.8929 C4.3157,51.8929 5.3386,50.7917 5.3386,49.5332 L5.3386,49.5332 Z" id="Path"></path>
            <path d="M23.1228,46.4656 C23.595,46.3083 23.831,45.7577 23.595,45.2858 C23.3589,44.8138 22.8867,44.5778 22.4933,44.8138 C16.9849,47.3308 12.1061,48.5107 7.4633,48.432 C6.9125,48.3534 6.519,48.8253 6.519,49.2972 C6.519,49.8478 6.9125,50.2411 7.3846,50.2411 L7.7781,50.2411 C12.4995,50.2411 17.5358,48.9826 23.1228,46.4656 Z" id="Path"></path>
            <path d="M44.3694,19.8796 C44.3694,14.3737 41.5365,9.3396 36.579,5.9574 C36.1068,5.6428 35.556,5.8001 35.2412,6.1933 C34.9265,6.5866 35.0839,7.1372 35.4773,7.4519 C39.9627,10.5195 42.4808,15.0029 42.4808,19.8796 C42.4808,28.6105 34.2182,35.6896 24.0671,35.6896 C13.916,35.6896 5.6534,28.6105 5.6534,19.8796 C5.6534,15.0029 8.2502,10.4408 12.6569,7.4519 C13.0504,7.1372 13.2077,6.5866 12.893,6.1933 C12.5782,5.8001 12.0274,5.6428 11.6339,5.9574 C6.6764,9.3396 3.8435,14.4523 3.8435,19.8796 C3.8435,29.3184 12.4208,37.0268 23.0441,37.3414 C22.4146,41.6675 24.1458,45.4431 27.6869,47.6455 C30.1263,49.1399 33.1953,49.9265 36.3429,49.9265 C36.9724,49.9265 37.602,49.9265 38.2315,49.8478 C39.4119,49.6905 41.8513,49.2972 44.1333,48.1961 C46.4154,47.0949 47.9105,45.4431 48.3826,43.4766 C48.7761,41.6675 48.4613,40.0944 47.3596,38.8359 C45.7071,36.9481 42.7956,36.2402 40.5922,36.3975 C38.3889,36.6335 36.3429,37.4987 34.6117,38.364 C32.9592,39.2292 31.3067,40.0944 29.7329,40.9596 C28.946,41.3529 28.2378,41.7462 27.5296,42.1395 C27.0574,42.3754 26.9,42.9261 27.1361,43.398 C27.3721,43.8699 27.923,44.0272 28.3951,43.7913 C28.7492,43.5946 29.123,43.398 29.4968,43.2013 C29.8706,43.0047 30.2444,42.8081 30.5985,42.6114 C32.1723,41.7462 33.8248,40.881 35.3986,40.0944 C35.4327,40.0791 35.4669,40.0637 35.5013,40.0482 C37.0542,39.3494 38.9019,38.5179 40.7496,38.364 C42.7956,38.2066 44.9989,38.9146 46.0219,40.1731 C46.7301,40.9596 46.9662,41.9822 46.6514,43.162 C45.9432,46.2296 41.6152,47.8028 38.0741,48.1174 C34.6904,48.5107 31.228,47.8028 28.7099,46.2296 C25.7196,44.4205 24.3032,41.1956 24.9327,37.4987 C35.7134,37.1055 44.3694,29.3971 44.3694,19.8796 Z" id="Path"></path>
            <path d="M27.4508,11.9353 C27.4508,11.3847 26.9787,10.9914 26.5065,10.9914 C26.0344,10.9914 25.6409,11.3847 25.6409,12.0139 C25.6409,15.7895 28.7099,16.9693 31.5428,17.8345 L31.8575,17.9132 C35.1625,19.0144 37.2085,19.801 37.2085,22.7113 C37.2085,26.4868 35.0839,28.3746 30.7558,28.3746 C29.278,28.3746 28.2859,27.9584 27.3885,27.582 C27.3302,27.5576 27.2723,27.5333 27.2147,27.5093 C26.2705,27.116 25.3262,26.7228 24.0671,26.7228 C22.8081,26.7228 21.8638,27.116 20.9195,27.5093 C19.9752,27.9813 18.9522,28.3746 17.3784,28.3746 C13.1291,28.3746 10.9257,26.4868 10.9257,22.7113 C10.9257,19.801 12.893,18.9357 16.2767,17.9132 L16.3225,17.8987 C19.3006,16.9588 22.572,15.9263 22.572,11.9353 C22.572,11.3847 22.0998,10.9914 21.6277,10.9914 C21.0769,10.9914 20.6834,11.4634 20.6834,11.9353 C20.6834,14.4523 18.7161,15.2389 15.6472,16.1828 L15.6096,16.195 C12.7039,17.1368 9.0371,18.3254 9.0371,22.7113 C9.0371,27.116 11.5552,29.7904 16.0406,30.1837 C18.1653,32.1501 21.1555,33.1726 24.0671,33.1726 C26.9787,33.1726 29.9689,32.1501 32.0936,30.1837 C36.579,29.7117 39.0971,27.0374 39.0971,22.7113 C39.0971,18.2684 35.5425,17.1468 32.5684,16.2084 L32.487,16.1828 C29.3394,15.1602 27.4508,14.4523 27.4508,11.9353 Z M22.0552,29.0008 C22.7186,28.7478 23.2848,28.5319 24.0671,28.5319 C25.0114,28.5319 25.7196,28.7678 26.5065,29.0825 C26.6467,29.1425 26.7869,29.2077 26.9296,29.274 C27.3479,29.4684 27.7884,29.6731 28.3164,29.7904 C28.6312,29.869 28.6312,30.2623 28.3951,30.341 C25.7196,31.5208 22.4146,31.5208 19.7391,30.341 C19.503,30.2623 19.503,29.869 19.8178,29.869 C20.4473,29.6331 21.0769,29.3971 21.6277,29.1611 C21.7762,29.1071 21.9178,29.0532 22.0552,29.0008 Z" id="Shape"></path>
            <path d="M30.5985,24.2844 C32.1723,23.8911 34.1396,23.1045 32.6444,21.846 C31.228,20.7448 30.205,21.9247 29.6542,23.1045 C29.3394,23.7338 29.8902,24.4417 30.5985,24.2844 L30.5985,24.2844 Z" id="Path"></path>
            <path d="M17.6144,24.2844 C18.3227,24.5204 18.8735,23.7338 18.5587,23.1045 C17.9292,21.9247 16.9062,20.7448 15.5685,21.846 C14.152,23.1045 16.0406,23.8911 17.6144,24.2844 L17.6144,24.2844 Z" id="Path"></path>
            <path d="M35.0839,4.5416 C35.1625,3.4404 34.533,2.4965 33.3526,1.9459 C31.0599,0.837 29.8099,2.2989 28.8185,3.4583 C28.7551,3.5324 28.6927,3.6054 28.6312,3.6763 C28.2377,4.2269 27.8443,4.6989 27.4508,4.9348 C26.3491,4.6989 25.1688,4.5416 23.9097,4.5416 C22.7294,4.5416 21.549,4.6989 20.3686,4.9348 C19.9752,4.6989 19.5817,4.2269 19.1883,3.6763 C18.4014,2.4965 17.1423,0.8447 14.7029,1.9459 C13.5225,2.4965 12.893,3.4404 12.9717,4.5416 C13.0504,5.7214 13.916,6.7439 15.2537,7.5305 C13.5225,8.8677 12.1061,10.9128 12.1061,13.2725 C12.1061,13.8231 12.5782,14.2163 13.0504,14.2163 C13.6012,14.2163 13.9947,13.7444 13.9947,13.2725 C13.9947,10.9128 16.198,8.9463 17.6931,8.3171 C18.0079,8.1598 18.244,7.8451 18.244,7.4519 C18.244,7.0586 18.0079,6.6653 17.6144,6.5866 C15.8046,6.036 14.939,5.0922 14.8603,4.4629 C14.7816,4.0696 15.2537,3.755 15.5685,3.5977 C16.5128,3.1257 16.9062,3.3617 17.8505,4.6989 C17.8979,4.758 17.9452,4.8176 17.9927,4.8774 C18.577,5.6129 19.1865,6.3802 20.1326,6.7439 L20.6047,6.7439 C21.7064,6.508 22.8867,6.3507 24.0671,6.3507 C25.3262,6.3507 26.4278,6.508 27.5295,6.7439 C27.6869,6.8226 27.8443,6.8226 28.0017,6.7439 C29.0246,6.3507 29.7329,5.4854 30.2837,4.6989 C31.228,3.3617 31.6214,3.1257 32.487,3.5977 C32.8018,3.755 33.1953,4.0696 33.1953,4.4629 C33.1166,5.0922 32.251,6.036 30.4411,6.5866 C30.0476,6.7439 29.8116,7.0586 29.8116,7.4519 C29.8116,7.8451 30.0476,8.1598 30.3624,8.3171 C31.9362,8.8677 34.0609,10.8341 34.0609,13.2725 C34.0609,13.8231 34.533,14.2163 35.0052,14.2163 C35.556,14.2163 35.9495,13.7444 35.9495,13.2725 C35.9495,10.9128 34.533,8.789 32.8018,7.5305 C34.2182,6.7439 35.0052,5.7214 35.0839,4.5416 L35.0839,4.5416 Z" id="Path"></path>
            <path d="M31.7788,12.0926 C31.7788,11.4634 31.228,10.9128 30.5985,10.9128 C29.8902,10.9128 29.3394,11.4634 29.4181,12.0926 C29.4181,12.7219 29.8902,13.2725 30.5985,13.2725 C31.228,13.2725 31.7788,12.8005 31.7788,12.0926 Z" id="Path"></path>
            <path d="M18.7948,12.0926 C18.7948,11.4634 18.3227,10.9128 17.6144,10.9128 C16.9062,10.9128 16.3554,11.4634 16.4341,12.0926 C16.4341,12.7219 16.9062,13.2725 17.6144,13.2725 C18.244,13.2725 18.7948,12.8005 18.7948,12.0926 Z" id="Path"></path>
        </g>
    </g>
</svg>