<svg width="161" height="77" viewBox="0 0 161 77" fill="none" xmlns="http://www.w3.org/2000/svg">
<g clip-path="url(#clip0)">
<path d="M27.4788 47.0892V34.3335L25.4059 40.4148V47.0892H24.5249V47.5918H28.3495V47.0892H27.4788Z" fill="#3C4858"/>
<path d="M7.54836 34.3335L9.62128 40.4148V47.0892H10.4919V47.5918H6.67773V47.0892H7.54836V34.3335Z" fill="#3C4858"/>
<path d="M12.8757 47.5617L12.8653 47.5918H14.9797L17.5086 34.9266L20.0376 47.5918H22.1623L22.152 47.5617C22.152 47.5617 27.7592 31.0767 27.7696 31.0767C27.9665 30.3731 27.5312 29.6393 26.7953 29.4484C26.0698 29.2574 25.3132 29.6795 25.1163 30.3932C24.9815 30.8657 25.1266 31.3783 25.5308 31.7301C25.5827 31.7804 25.6345 31.8206 25.6967 31.8507C25.9351 31.9915 26.1942 32.0618 26.4429 32.0618C26.5984 32.0618 26.7642 32.0317 26.9093 31.9814L21.9447 46.5565L18.6176 29.9107H19.4261V29.4081H15.6015V29.9107H16.41L13.0829 46.5565L8.11828 31.9814C8.27375 32.0317 8.42922 32.0618 8.58469 32.0618C8.8438 32.0618 9.10292 31.9915 9.3413 31.8407C9.40349 31.8005 9.45531 31.7603 9.50714 31.71C9.90099 31.3481 10.0357 30.8556 9.91136 30.3832C9.71443 29.6795 8.95781 29.2574 8.23229 29.4383C7.50677 29.6293 7.07145 30.3631 7.25802 31.0667L12.8757 47.5617Z" fill="#3C4858"/>
<path fill-rule="evenodd" clip-rule="evenodd" d="M0.5 38.495C0.5 47.5918 8.12835 55 17.5083 55C26.8883 55 34.5167 47.5918 34.5167 38.495C34.5167 29.3981 26.8883 22 17.5083 22C8.12835 22 0.5 29.3981 0.5 38.495ZM1.01823 38.495C1.01823 29.6796 8.41856 22.5026 17.5083 22.5026C26.6085 22.5026 33.9984 29.6796 33.9984 38.495C33.9984 47.3104 26.5981 54.4874 17.5083 54.4874C8.41856 54.4874 1.01823 47.3104 1.01823 38.495Z" fill="#3C4858"/>
<path d="M147.296 33.5722C147.322 34.0351 147.431 34.4109 147.624 34.6997C147.992 35.2403 148.64 35.5106 149.568 35.5106C149.984 35.5106 150.363 35.4514 150.705 35.3329C151.366 35.1033 151.696 34.6923 151.696 34.0999C151.696 33.6555 151.557 33.3389 151.278 33.1501C150.996 32.965 150.554 32.8039 149.953 32.6669L148.844 32.4169C148.12 32.254 147.608 32.0744 147.307 31.8782C146.787 31.5375 146.527 31.0284 146.527 30.3508C146.527 29.6176 146.781 29.0159 147.29 28.5456C147.799 28.0754 148.519 27.8403 149.451 27.8403C150.309 27.8403 151.037 28.0476 151.635 28.4623C152.237 28.8733 152.537 29.5324 152.537 30.4396H151.496C151.44 30.0027 151.321 29.6676 151.139 29.4343C150.801 29.0085 150.228 28.7956 149.418 28.7956C148.764 28.7956 148.295 28.9326 148.009 29.2066C147.723 29.4806 147.58 29.799 147.58 30.1619C147.58 30.5618 147.747 30.8544 148.081 31.0395C148.3 31.158 148.796 31.3061 149.568 31.4838L150.716 31.7449C151.269 31.8708 151.696 32.043 151.997 32.2614C152.517 32.6428 152.777 33.1964 152.777 33.9221C152.777 34.8256 152.446 35.4718 151.785 35.8606C151.128 36.2494 150.363 36.4438 149.49 36.4438C148.473 36.4438 147.676 36.1846 147.101 35.6662C146.525 35.1515 146.243 34.4535 146.254 33.5722H147.296Z" fill="#3C4858"/>
<path d="M43.7036 28.0459H42.584V36.205H43.7036V28.0459Z" fill="#3C4858"/>
<path d="M46.9311 28.0459H45.6221V36.205H46.6804V29.601L50.8749 36.205H52.117V28.0459H51.0643V34.6554L46.9311 28.0459Z" fill="#3C4858"/>
<path d="M59.9352 28.0459V29.0178H57.1779V36.205H56.0527V29.0178H53.2954V28.0459H59.9352Z" fill="#3C4858"/>
<path d="M62.4389 28.0459H61.3193V36.205H62.4389V28.0459Z" fill="#3C4858"/>
<path d="M64.3296 28.0459H65.9172L68.2678 34.9442L70.6018 28.0459H72.1726V36.205H71.1198V31.3895C71.1198 31.2229 71.1236 30.947 71.131 30.5619C71.1384 30.1768 71.1421 29.764 71.1421 29.3233L68.8082 36.205H67.7108L65.3601 29.3233V29.5733C65.3601 29.7732 65.3638 30.0787 65.3713 30.4897C65.3824 30.897 65.388 31.197 65.388 31.3895V36.205H64.3296V28.0459Z" fill="#3C4858"/>
<path fill-rule="evenodd" clip-rule="evenodd" d="M77.6066 28.0459H76.3532L73.2729 36.205H74.4092L75.2949 33.7612H78.5312L79.3612 36.205H80.5755L77.6066 28.0459ZM76.9325 29.2567L78.1747 32.8614H75.6124L76.9325 29.2567Z" fill="#3C4858"/>
<path d="M86.8058 28.0459V29.0178H84.0485V36.205H82.9233V29.0178H80.166V28.0459H86.8058Z" fill="#3C4858"/>
<path d="M94.0107 28.0459H88.0449V36.205H94.0943V35.233H89.1256V32.467H93.6431V31.5228H89.1256V29.0456H94.0107V28.0459Z" fill="#3C4858"/>
<path d="M99.4918 28.0459L101.035 34.6832L102.884 28.0459H104.087L105.937 34.6832L107.48 28.0459H108.694L106.544 36.205H105.38L103.491 29.44L101.592 36.205H100.428L98.2886 28.0459H99.4918Z" fill="#3C4858"/>
<path d="M115.91 28.0459H109.944V36.205H115.994V35.233H111.025V32.467H115.543V31.5228H111.025V29.0456H115.91V28.0459Z" fill="#3C4858"/>
<path d="M117.562 28.0459H118.67V35.233H122.815V36.205H117.562V28.0459Z" fill="#3C4858"/>
<path d="M125.135 28.0459H124.026V36.205H129.279V35.233H125.135V28.0459Z" fill="#3C4858"/>
<path d="M130.49 28.0459H131.799L135.932 34.6554V28.0459H136.985V36.205H135.743L131.549 29.601V36.205H130.49V28.0459Z" fill="#3C4858"/>
<path d="M144.92 28.0459H138.954V36.205H145.004V35.233H140.035V32.467H144.552V31.5228H140.035V29.0456H144.92V28.0459Z" fill="#3C4858"/>
<path d="M155.347 34.6997C155.154 34.4109 155.045 34.0351 155.019 33.5722H153.977C153.966 34.4535 154.248 35.1515 154.824 35.6662C155.399 36.1846 156.196 36.4438 157.214 36.4438C158.086 36.4438 158.851 36.2494 159.508 35.8606C160.169 35.4718 160.5 34.8256 160.5 33.9221C160.5 33.1964 160.24 32.6428 159.72 32.2614C159.419 32.043 158.992 31.8708 158.439 31.7449L157.291 31.4838C156.519 31.3061 156.023 31.158 155.804 31.0395C155.47 30.8544 155.303 30.5618 155.303 30.1619C155.303 29.799 155.446 29.4806 155.732 29.2066C156.018 28.9326 156.488 28.7956 157.141 28.7956C157.951 28.7956 158.524 29.0085 158.862 29.4343C159.044 29.6676 159.163 30.0027 159.219 30.4396H160.26C160.26 29.5324 159.96 28.8733 159.358 28.4623C158.76 28.0476 158.032 27.8403 157.175 27.8403C156.242 27.8403 155.522 28.0754 155.013 28.5456C154.504 29.0159 154.25 29.6176 154.25 30.3508C154.25 31.0284 154.51 31.5375 155.03 31.8782C155.331 32.0744 155.843 32.254 156.567 32.4169L157.676 32.6669C158.277 32.8039 158.719 32.965 159.002 33.1501C159.28 33.3389 159.419 33.6555 159.419 34.0999C159.419 34.6923 159.089 35.1033 158.428 35.3329C158.086 35.4514 157.707 35.5106 157.291 35.5106C156.363 35.5106 155.715 35.2403 155.347 34.6997Z" fill="#3C4858"/>
<path d="M43.9037 50.1042H42.1992V41.9172H43.9037V50.1042Z" fill="#3C4858"/>
<path d="M47.3934 41.9172H45.5942V50.1042H47.1929V44.2889L50.5462 50.1042H52.2619V41.9172H50.6632V47.6325L47.3934 41.9172Z" fill="#3C4858"/>
<path d="M55.2227 47.5771C55.2747 47.9511 55.3768 48.2306 55.529 48.4158C55.8076 48.7527 56.2848 48.9212 56.9606 48.9212C57.3654 48.9212 57.694 48.8768 57.9466 48.7879C58.4256 48.6176 58.6651 48.301 58.6651 47.8381C58.6651 47.5678 58.5463 47.3586 58.3086 47.2105C58.071 47.0661 57.6978 46.9383 57.189 46.8273L56.32 46.6329C55.4659 46.4403 54.8755 46.2311 54.5487 46.0052C53.9954 45.6275 53.7187 45.0369 53.7187 44.2334C53.7187 43.5003 53.9861 42.8912 54.5208 42.4061C55.0556 41.921 55.841 41.6785 56.8771 41.6785C57.7423 41.6785 58.4795 41.9081 59.0885 42.3672C59.7012 42.8227 60.0224 43.4855 60.0521 44.3556H58.4033C58.3736 43.8631 58.1582 43.5132 57.7572 43.3059C57.4898 43.1689 57.1574 43.1004 56.7601 43.1004C56.3182 43.1004 55.9654 43.1892 55.7017 43.367C55.4381 43.5447 55.3062 43.7928 55.3062 44.1112C55.3062 44.4038 55.4362 44.6222 55.6962 44.7666C55.8633 44.8629 56.2198 44.9758 56.7657 45.1054L58.1805 45.4443C58.8007 45.5924 59.2686 45.7905 59.5842 46.0386C60.0744 46.4236 60.3195 46.9809 60.3195 47.7104C60.3195 48.4584 60.0317 49.0804 59.4561 49.5766C58.8842 50.0691 58.0747 50.3153 57.0275 50.3153C55.958 50.3153 55.1168 50.0728 54.5041 49.5877C53.8914 49.0989 53.585 48.4287 53.585 47.5771H55.2227Z" fill="#3C4858"/>
<path d="M67.6695 43.3669V41.9172H61.0186V43.3669H63.4862V50.1042H65.213V43.3669H67.6695Z" fill="#3C4858"/>
<path d="M70.3627 50.1042H68.6582V41.9172H70.3627V50.1042Z" fill="#3C4858"/>
<path d="M78.0464 43.3669V41.9172H71.3955V43.3669H73.8631V50.1042H75.5899V43.3669H78.0464Z" fill="#3C4858"/>
<path d="M79.1689 41.9172H80.9124V46.9494C80.9124 47.5122 80.9793 47.9232 81.113 48.1824C81.3209 48.6415 81.774 48.8711 82.4721 48.8711C83.1666 48.8711 83.6178 48.6415 83.8257 48.1824C83.9594 47.9232 84.0262 47.5122 84.0262 46.9494V41.9172H85.7697V46.9494C85.7697 47.8195 85.6342 48.4971 85.3631 48.9822C84.8581 49.8709 83.8944 50.3152 82.4721 50.3152C81.0498 50.3152 80.0843 49.8709 79.5756 48.9822C79.3045 48.4971 79.1689 47.8195 79.1689 46.9494V41.9172Z" fill="#3C4858"/>
<path d="M93.4928 43.3669V41.9172H86.8418V43.3669H89.3095V50.1042H91.0363V43.3669H93.4928Z" fill="#3C4858"/>
<path d="M100.687 43.3669H96.3422V45.1053H100.331V46.5272H96.3422V48.6323H100.887V50.1042H94.6655V41.9172H100.687V43.3669Z" fill="#3C4858"/>
</g>
<defs>
<clipPath id="clip0">
<rect width="160" height="77" fill="white" transform="translate(0.5)"/>
</clipPath>
</defs>
</svg>
