<svg width="100" height="100" viewBox="0 0 100 100" fill="none" xmlns="http://www.w3.org/2000/svg">
<path d="M79.4324 39.3068C79.1324 37.0068 78.4324 34.8068 77.4324 32.8068C76.7324 31.4068 75.8324 30.1068 74.6324 29.1068C73.1324 27.8068 71.2324 27.1068 69.2324 27.1068C68.3324 27.1068 67.4324 27.2068 66.5324 27.5068L69.1324 21.9068L69.4324 21.2068L68.8324 20.9068L63.7324 17.3068L63.5324 17.1068H59.2324C58.3324 16.9068 57.4324 16.5068 56.7324 15.9068C54.3324 14.0068 51.4324 13.0068 48.3324 13.0068C45.2324 12.9068 42.2324 13.9068 39.8324 16.0068L31.0324 24.6068L30.8324 24.8068L25.7324 29.8068C24.8324 30.7068 24.1324 31.7068 23.6324 32.9068C22.6324 35.0068 21.9324 37.1068 21.6324 39.4068C20.6324 44.7068 20.8324 50.1068 22.1324 55.3068C23.6324 60.8068 26.2324 65.9068 29.7324 70.4068C34.6324 76.6068 40.8324 81.8068 47.8324 85.8068L50.0324 87.1068L50.5324 87.4068L51.0324 87.1068L53.2324 85.8068C60.2324 81.8068 66.3324 76.5068 71.4324 70.3068C74.9324 65.8068 77.5324 60.7068 79.0324 55.2068C80.1324 50.0068 80.3324 44.6068 79.4324 39.3068Z" fill="white"/>
<path d="M46.2324 33.5068H38.3324L37.6324 45.4068C38.0324 45.5068 38.5324 45.6068 38.9324 45.8068L46.2324 33.5068Z" fill="#2E2D42"/>
<path d="M40.1325 60.5068L40.0325 61.5068L40.4325 61.7068C41.2325 62.0068 42.0325 62.2068 42.9325 62.1068C43.8325 62.1068 44.7325 62.0068 45.5325 61.6068V60.6068C44.7325 61.0068 43.8325 61.2068 42.9325 61.2068C42.1325 61.2068 41.2325 61.0068 40.4325 60.7068L40.1325 60.5068Z" fill="#2E2D42"/>
<path d="M40.4325 64.2068L40.1325 64.0068H40.0325V65.0068L40.4325 65.2068C41.2325 65.5068 42.0325 65.7068 42.9325 65.6068C43.6325 65.6068 44.3325 65.5068 44.9325 65.3068V64.4068C44.3325 64.6068 43.6325 64.7068 42.9325 64.7068C42.0325 64.8068 41.1325 64.6068 40.4325 64.2068Z" fill="#2E2D42"/>
<path d="M40.4325 67.7068L40.1325 67.5068H40.0325V68.5068L40.4325 68.7068C41.2325 69.0068 42.0325 69.1068 42.8325 69.1068C43.2325 69.1068 43.6325 69.1068 44.0325 69.0068V68.1068C43.6325 68.2068 43.2325 68.2068 42.8325 68.2068C42.0325 68.3068 41.1325 68.1068 40.4325 67.7068Z" fill="#2E2D42"/>
<path d="M49.3324 17.1068C50.0324 17.2068 50.6324 17.5068 51.2324 17.8068C51.8324 18.1068 52.4324 18.5068 52.9324 18.9068C53.7324 19.6068 54.6324 20.2068 55.5324 20.7068V19.2068C54.8324 18.8068 54.2324 18.4068 53.5324 18.0068C52.9324 17.6068 52.2324 17.3068 51.6324 17.0068C50.9324 16.7068 50.2324 16.5068 49.5324 16.4068C48.8324 16.3068 48.1324 16.3068 47.3324 16.4068H47.2324V17.0068H47.3324C47.9324 16.9068 48.6324 17.0068 49.3324 17.1068Z" fill="#2E2D42"/>
<path d="M78.5324 39.5069C78.2324 37.3069 77.5324 35.2069 76.6324 33.2069C76.0324 31.9069 75.1324 30.7069 74.0324 29.8069C72.7324 28.7069 70.9324 28.0069 69.2324 28.0069C66.9324 28.0069 64.7324 28.9069 63.1324 30.5069L60.5324 27.7069L60.9324 26.8069H64.5324L64.1324 27.7069H65.5324L68.3324 21.6069L63.2324 18.0069H59.2324C58.1324 17.8069 57.0324 17.3069 56.2324 16.6069C54.0324 14.8069 51.2324 13.8069 48.3324 13.8069C45.4324 13.6069 42.6324 14.6069 40.4324 16.5069L31.3324 25.4069L26.2324 30.4069C25.4324 31.2069 24.7324 32.2069 24.2324 33.2069C23.3324 35.2069 22.6324 37.3069 22.3324 39.5069C21.3324 44.6069 21.5324 49.9069 22.8324 55.0069C24.3324 60.4069 26.8324 65.4069 30.3324 69.8069C35.3324 76.0069 41.4324 81.2069 48.3324 85.1069L50.5324 86.4069L52.7324 85.1069C59.6324 81.1069 65.7324 75.9069 70.7324 69.8069C74.1324 65.4069 76.6324 60.4069 78.1324 55.0069C79.3324 49.9069 79.5324 44.6069 78.5324 39.5069ZM41.2324 17.4069C41.8324 16.8069 43.8324 15.0069 48.2324 15.0069C50.8324 15.0069 53.4324 15.9069 55.4324 17.6069C56.7324 18.5069 57.8324 19.2069 59.2324 19.2069H62.8324L66.8324 22.0069L65.2324 25.5069H61.6324C61.1324 25.5069 60.6324 25.3069 60.2324 24.9069C59.7324 24.4069 59.4324 23.8069 59.3324 23.1069H58.7324C58.7324 23.5069 58.7324 24.0069 58.9324 24.4069C59.0324 24.8069 59.3324 25.2069 59.6324 25.6069C59.7324 25.8069 59.9324 25.9069 60.1324 26.0069L59.2324 27.9069L61.6324 30.5069H59.8324L56.6324 27.8069H55.9324L58.2324 30.5069H53.5324L50.8324 27.8069H49.2324C49.5324 27.1069 49.7324 26.3069 49.7324 25.5069C49.7324 25.4069 49.7324 25.2069 49.7324 25.1069V24.7069V24.5069V24.3069L49.6324 23.9069C49.5324 23.3069 49.3324 22.8069 49.0324 22.3069C48.7324 21.8069 48.4324 21.3069 48.0324 20.9069L47.9324 20.8069L47.7324 20.7069L47.4324 20.4069C47.2324 20.2069 46.9324 20.1069 46.7324 19.9069C45.7324 19.3069 44.8324 19.0069 43.9324 18.9069C43.7324 18.9069 43.4324 18.9069 43.1324 18.9069V19.5069C44.1324 19.5069 45.1324 19.8069 45.9324 20.4069C46.1324 20.5069 46.3324 20.7069 46.5324 20.8069L46.8324 21.1069L46.9324 21.2069L47.0324 21.3069C47.3324 21.7069 47.6324 22.1069 47.8324 22.5069C48.0324 22.9069 48.2324 23.4069 48.3324 23.9069V24.3069V24.5069V25.1069C48.3324 25.2069 48.3324 25.3069 48.3324 25.5069C48.2324 26.5069 47.9324 27.4069 47.3324 28.1069L46.6324 29.1069H50.0324L51.5324 30.6069H37.5324V25.4069H33.0324L41.2324 17.4069ZM34.9324 35.5069C34.4324 37.4069 32.8324 38.8069 30.9324 39.0069H30.4324C28.0324 39.0069 25.9324 37.1069 25.7324 34.7069C25.7324 34.6069 25.7324 34.5069 25.7324 34.4069C25.7324 33.1069 26.2324 31.9069 27.2324 31.0069L31.7324 26.6069H36.2324V31.0069L34.9324 35.5069ZM76.8324 54.7069C75.9324 57.8069 74.7324 60.9069 73.1324 63.7069L72.8324 64.1069L72.6324 64.4069L72.3324 64.8069L72.1324 65.3069L71.9324 65.7069L71.4324 66.4069L71.2324 66.7069L70.8324 67.2069L70.6324 67.5069L70.2324 68.0069L70.0324 68.2069L69.4324 69.0069L68.9324 69.7069C66.8324 72.3069 64.4324 74.8069 61.8324 77.0069C59.7324 78.8069 57.6324 80.4069 55.3324 81.9069C54.2324 82.6069 53.0324 83.4069 51.8324 84.1069L50.3324 85.0069L48.8324 84.1069C42.1324 80.2069 36.1324 75.1069 31.2324 69.1069L30.8324 68.6069L30.6324 68.3069L30.2324 67.7069L30.0324 67.3069L29.5324 66.6069L29.4324 66.5069L28.9324 65.7069C26.7324 62.3069 25.0324 58.6069 24.0324 54.7069C22.8324 49.8069 22.6324 44.7069 23.5324 39.7069C23.7324 38.2069 24.1324 36.7069 24.6324 35.3069C24.7324 36.2069 25.1324 37.1069 25.6324 37.8069C25.4324 38.5069 25.3324 39.2069 25.1324 40.0069C24.9324 41.2069 24.7324 42.5069 24.7324 43.7069L32.9324 47.5069C33.0324 47.3069 33.2324 47.1069 33.4324 46.9069C33.5324 46.8069 33.7324 46.6069 33.8324 46.5069L28.8324 40.0069C29.7324 40.2069 30.6324 40.3069 31.5324 40.1069L34.9324 45.7069C35.3324 45.5069 35.7324 45.4069 36.2324 45.3069L35.7324 36.9069C35.9324 36.5069 36.0324 36.2069 36.1324 35.8069L37.3324 31.8069V31.7069H63.7324L63.9324 31.5069C65.3324 30.0069 67.2324 29.2069 69.2324 29.3069C70.7324 29.3069 72.1324 29.8069 73.2324 30.8069C74.2324 31.6069 74.9324 32.7069 75.5324 33.8069C76.4324 35.7069 77.0324 37.7069 77.3324 39.7069C78.2324 44.7069 78.0324 49.8069 76.8324 54.7069Z" fill="#2E2D42"/>
<path d="M63.0324 22.4068C63.419 22.4068 63.7324 22.0934 63.7324 21.7068C63.7324 21.3202 63.419 21.0068 63.0324 21.0068C62.6458 21.0068 62.3324 21.3202 62.3324 21.7068C62.3324 22.0934 62.6458 22.4068 63.0324 22.4068Z" fill="#2E2D42"/>
<path d="M59.2324 22.1068C59.3324 21.6068 59.7324 21.2068 60.2324 21.1068V20.4068H58.6324V22.1068H59.2324V22.1068Z" fill="#2E2D42"/>
<path d="M75.6324 40.0068C74.9324 35.9068 73.2324 31.0068 69.2324 31.0068C67.3324 30.9068 65.5324 31.9068 64.6324 33.5068H50.0324L40.0324 46.5068C40.1324 46.6068 40.2324 46.7068 40.4324 46.8068C40.6324 47.0068 40.8324 47.3068 40.9324 47.5068L48.1324 44.2068L47.5324 46.8068L41.5324 48.7068C41.6324 49.1068 41.7324 49.6068 41.7324 50.1068C41.5324 50.1068 41.3324 50.0068 41.1324 49.9068C40.9324 49.8068 40.7324 49.7068 40.5324 49.7068L40.2324 49.6068L39.6324 49.3068C39.1324 49.1068 38.6324 48.9068 38.1324 48.9068H37.8324H37.4324H36.4324H36.0324H35.7324C35.2324 49.0068 34.7324 49.1068 34.2324 49.3068L33.6324 49.6068L33.3324 49.7068C33.1324 49.8068 32.9324 49.9068 32.7324 49.9068C32.5324 50.0068 32.3324 50.0068 32.1324 50.1068C32.1324 49.6068 32.2324 49.1068 32.3324 48.7068L24.6324 46.2068C24.6324 47.1068 24.6324 48.0068 24.7324 48.9068C24.7324 49.0068 24.7324 49.1068 24.7324 49.2068C24.7324 49.3068 24.7324 49.6068 24.7324 49.8068C24.7324 49.9068 24.7324 50.1068 24.7324 50.2068H25.5324L26.0324 50.3068C26.5324 50.4068 27.1324 50.6068 27.5324 50.9068C28.5324 51.4068 29.6324 51.7068 30.7324 51.7068C31.8324 51.7068 32.9324 51.5068 33.9324 50.9068C34.1324 50.8068 34.4324 50.7068 34.6324 50.6068C35.1324 50.4068 35.7324 50.3068 36.3324 50.3068H37.0324C37.5324 50.3068 38.1324 50.4068 38.6324 50.6068C38.9324 50.7068 39.1324 50.8068 39.4324 50.9068C40.4324 51.4068 41.5324 51.7068 42.6324 51.7068C43.7324 51.7068 44.8324 51.5068 45.8324 50.9068L46.3324 50.7068L46.0324 51.9068L47.1324 51.7068L46.8324 53.0068C46.2324 53.1068 45.7324 53.3068 45.2324 53.6068C44.3324 54.1068 43.4324 54.3068 42.4324 54.3068C41.4324 54.3068 40.5324 54.1068 39.6324 53.6068C38.6324 53.1068 37.5324 52.8068 36.4324 52.8068C35.3324 52.8068 34.2324 53.0068 33.2324 53.6068C32.3324 54.1068 31.4324 54.3068 30.4324 54.3068C29.4324 54.3068 28.5324 54.1068 27.6324 53.6068C27.1324 53.3068 26.6324 53.1068 26.0324 53.0068H26.4324H26.3324H26.1324H26.0324C25.7324 53.0068 25.5324 52.9068 25.2324 52.9068C25.3324 53.2068 25.3324 53.5068 25.4324 53.8068H25.9324H26.1324H26.2324L26.5324 53.9068L26.8324 54.0068C27.1324 54.1068 27.5324 54.3068 27.8324 54.4068C28.8324 54.9068 29.9324 55.2068 31.0324 55.2068C32.1324 55.2068 33.2324 55.0068 34.2324 54.4068C35.1324 53.9068 36.0324 53.7068 37.0324 53.7068C38.0324 53.7068 38.9324 53.9068 39.8324 54.4068C40.8324 54.9068 41.9324 55.2068 43.0324 55.2068C44.1324 55.2068 45.2324 55.0068 46.2324 54.4068C46.5324 54.2068 46.9324 54.1068 47.2324 54.0068L46.6324 56.6068C46.3324 56.7068 46.0324 56.9068 45.7324 57.0068C44.9324 57.5068 43.9324 57.7068 43.0324 57.7068C42.1324 57.7068 41.1324 57.5068 40.3324 57.0068C39.3324 56.5068 38.2324 56.2068 37.1324 56.2068C36.0324 56.2068 34.9324 56.4068 33.9324 57.0068C32.8324 57.3068 31.8324 57.5068 30.9324 57.5068C30.0324 57.5068 29.0324 57.3068 28.2324 56.8068L27.6324 56.5068V56.5068C27.2324 56.3068 26.7324 56.2068 26.3324 56.1068C26.5324 56.6068 26.6324 57.0068 26.8324 57.5068C27.6324 59.5068 28.5324 61.4068 29.6324 63.3068L29.7324 63.6068L29.9324 64.0068L30.1324 64.3068L30.3324 64.7068L30.5324 65.0068L30.7324 65.4068L30.9324 65.7068L31.1324 66.0068L31.4324 66.4068L31.6324 66.7068L31.9324 67.1068L32.1324 67.3068L32.6324 68.0068C37.4324 73.8068 43.2324 78.8068 49.8324 82.5068L50.4324 82.9068L51.0324 82.5068C57.6324 78.7068 63.4324 73.8068 68.1324 67.9068C68.4324 67.6068 68.6324 67.2068 68.9324 66.9068L69.0324 66.8068C69.2324 66.5068 69.5324 66.1068 69.7324 65.8068L69.8324 65.7068C70.3324 65.0068 70.8324 64.2068 71.2324 63.5068C72.4324 61.5068 73.3324 59.5068 74.1324 57.4068C74.3324 57.0068 74.4324 56.6068 74.5324 56.2068C74.0324 56.3068 73.6324 56.4068 73.2324 56.6068H73.1324L72.5324 56.9068C70.8324 57.8068 68.8324 57.8068 67.1324 56.9068C65.1324 55.9068 62.7324 55.9068 60.6324 56.9068C58.9324 57.8068 56.9324 57.8068 55.2324 56.9068C54.9324 56.8068 54.6324 56.6068 54.3324 56.5068L53.3324 51.7068L54.5324 51.9068L53.8324 48.7068L57.6324 45.0068L60.1324 46.8068L64.0324 42.9068L67.8324 46.9068L70.3324 45.1068L74.8324 49.6068L75.9324 50.7068C75.9324 50.3068 76.0324 49.9068 76.0324 49.5068C76.0324 49.4068 76.0324 49.4068 76.0324 49.3068C76.0324 49.2068 76.0324 49.1068 76.0324 49.1068C76.2324 46.0068 76.1324 43.0068 75.6324 40.0068ZM68.3324 40.6068L68.4324 40.4068H69.8324L70.2324 39.0068H70.4324L70.8324 40.3068H72.2324L72.3324 40.5068L71.1324 41.3068L71.5324 42.7068L71.3324 42.8068L70.1324 42.0068L68.9324 42.8068L68.7324 42.7068L69.1324 41.3068L68.3324 40.6068ZM65.3324 40.4068L65.1324 40.5068L63.9324 39.7068L62.8324 40.5068L62.6324 40.4068L63.0324 39.0068L61.8324 38.2068L61.9324 38.0068H63.3324L63.8324 36.6068H64.0324L64.4324 38.0068H65.8324L65.9324 38.2068L64.8324 39.1068L65.3324 40.4068ZM58.8324 42.8068L58.6324 42.9068L57.4324 42.1068L56.2324 42.9068L56.0324 42.8068L56.4324 41.4068L55.2324 40.6068L55.3324 40.4068H56.7324L57.1324 39.0068H57.3324L57.7324 40.3068H59.1324L59.2324 40.5068L58.0324 41.3068L58.8324 42.8068ZM53.6324 58.8068L52.2324 58.5068L54.1324 67.7068L50.4324 66.2068L46.7324 67.7068L48.6324 58.5068L47.2324 58.8068L49.0324 50.0068L47.9324 50.2068L50.2324 38.0068H50.4324L52.8324 50.2068L51.7324 50.0068L53.6324 58.8068ZM51.1324 68.9068L51.4324 77.6068H49.3324L49.6324 68.9068V67.5068L50.3324 67.2068L51.0324 67.5068L51.1324 68.9068ZM48.6324 71.4068V72.0068C47.9324 72.0068 47.2324 72.2068 46.6324 72.5068C45.5324 73.1068 44.2324 73.4068 42.9324 73.4068C41.7324 73.4068 40.4324 73.2068 39.4324 72.6068L39.3324 72.5068L38.8324 72.3068H38.7324C38.5324 72.2068 38.4324 72.2068 38.2324 72.1068L38.7324 71.7068L38.8324 71.6068C39.1324 71.7068 39.3324 71.8068 39.6324 71.9068L39.9324 72.1068C40.8324 72.5068 41.8324 72.7068 42.7324 72.7068C43.8324 72.7068 44.9324 72.5068 45.9324 71.9068C46.7324 71.5068 47.6324 71.2068 48.5324 71.2068L48.6324 71.4068ZM60.8324 72.0068L61.1324 71.8068C61.3324 71.7068 61.6324 71.6068 61.9324 71.5068L62.6324 72.1068C62.4324 72.2068 62.2324 72.2068 62.1324 72.3068L61.8324 72.5068L61.7324 72.6068C60.6324 73.2068 59.4324 73.4068 58.2324 73.4068C56.9324 73.4068 55.6324 73.1068 54.5324 72.5068C53.9324 72.2068 53.2324 72.0068 52.5324 72.0068V71.4068V71.2068C53.4324 71.2068 54.3324 71.4068 55.1324 71.9068C56.1324 72.4068 57.2324 72.7068 58.3324 72.7068C59.0324 72.6068 59.9324 72.4068 60.8324 72.0068ZM46.1324 57.9068L45.6324 60.3068L47.1324 60.0068L45.0324 69.8068L48.9324 67.9068L48.8324 69.2068L48.7324 70.3068C47.6324 70.3068 46.6324 70.5068 45.7324 71.1068C44.8324 71.5068 43.8324 71.7068 42.8324 71.7068C41.9324 71.7068 41.0324 71.5068 40.2324 71.1068L40.0324 71.0068C39.7324 70.9068 39.4324 70.7068 39.1324 70.6068V58.6068L38.3324 59.3068V70.9068L37.5324 71.6068V58.8068L39.0324 57.6068H39.1324L39.4324 57.7068L39.5324 57.8068C39.7324 57.9068 40.0324 58.0068 40.3324 58.1068C41.1324 58.4068 41.9324 58.5068 42.8324 58.5068C44.0324 58.7068 45.1324 58.4068 46.1324 57.9068ZM54.7324 57.9068C55.7324 58.4068 56.8324 58.7068 57.9324 58.7068C58.7324 58.7068 59.6324 58.6068 60.4324 58.3068C60.7324 58.2068 60.9324 58.1068 61.2324 58.0068L61.6324 57.8068H61.7324L63.2324 59.0068V71.7068L62.4324 71.0068V59.3068L61.5324 58.6068V70.7068C61.2324 70.8068 60.9324 70.9068 60.6324 71.1068L60.4324 71.2068C59.6324 71.6068 58.7324 71.8068 57.8324 71.8068C56.8324 71.8068 55.9324 71.6068 55.0324 71.1068C54.1324 70.6068 53.0324 70.3068 52.0324 70.3068L51.9324 69.2068L51.8324 67.9068L55.7324 69.8068L55.4324 68.5068L53.6324 60.0068L55.1324 60.3068L54.7324 57.9068Z" fill="#2E2D42"/>
<path d="M60.4324 61.6068L60.8324 61.4068V60.4068H60.7324L60.4324 60.6068C59.6324 61.0068 58.8324 61.1068 57.9324 61.1068C57.0324 61.1068 56.1324 60.9068 55.3324 60.5068V61.5068C56.9324 62.1068 58.7324 62.2068 60.4324 61.6068Z" fill="#2E2D42"/>
<path d="M60.4324 64.2068C59.6324 64.6068 58.8324 64.7068 57.9324 64.7068C57.2324 64.7068 56.5324 64.6068 55.9324 64.4068V65.3068C56.5324 65.5068 57.2324 65.6068 57.9324 65.6068C58.7324 65.6068 59.6324 65.5068 60.4324 65.2068L60.8324 65.0068V64.0068H60.7324L60.4324 64.2068Z" fill="#2E2D42"/>
<path d="M60.4324 67.7068C59.6324 68.1068 58.8324 68.2068 57.9324 68.2068C57.5324 68.2068 57.1324 68.2068 56.7324 68.1068V69.0068C57.1324 69.1068 57.5324 69.1068 57.9324 69.1068C58.7324 69.1068 59.6324 69.0068 60.4324 68.7068L60.8324 68.5068V67.5068H60.7324L60.4324 67.7068Z" fill="#2E2D42"/>
<path d="M29.2324 35.5068L29.7324 35.9068L34.8324 28.9068V28.0068H34.0324L29.2324 35.5068Z" fill="#2E2D42"/>
</svg>
