<svg width="161" height="77" viewBox="0 0 161 77" fill="none" xmlns="http://www.w3.org/2000/svg">
<path d="M26.0068 51.2111C25.1356 51.4291 23.9864 51.6602 22.558 51.9049C21.1297 52.15 19.4768 52.272 17.5993 52.272C15.9668 52.272 14.5924 52.0335 13.4769 51.5583C12.3613 51.0825 11.4634 50.4088 10.7834 49.5378C10.1031 48.6668 9.61331 47.6398 9.31396 46.4562C9.01443 45.2727 8.86523 43.9607 8.86523 42.5177V30.6006H12.6608V41.7014C12.6608 44.2867 13.0689 46.137 13.8852 47.2522C14.7014 48.3678 16.0751 48.9257 18.0072 48.9257C18.4154 48.9257 18.8367 48.9119 19.2726 48.8843C19.7075 48.8576 20.1154 48.8234 20.4968 48.7823C20.8777 48.7417 21.2243 48.701 21.5376 48.6602C21.8498 48.6191 22.0743 48.5719 22.2108 48.5176V30.6006H26.0066V51.2111H26.0068Z" fill="#3C4858"/>
<path d="M35.2715 31.539C35.7337 31.2401 36.4347 30.9269 37.3734 30.6006C38.312 30.2738 39.3937 30.1108 40.6181 30.1108C42.1413 30.1108 43.4956 30.3829 44.679 30.9267C45.8623 31.4713 46.8625 32.2328 47.6786 33.2127C48.4951 34.1919 49.1137 35.3622 49.5356 36.7226C49.9569 38.0833 50.1683 39.5793 50.1683 41.2116C50.1683 42.9259 49.9162 44.4705 49.4132 45.8441C48.9093 47.2183 48.195 48.381 47.2702 49.3333C46.3451 50.286 45.2298 51.021 43.9235 51.5371C42.6176 52.0537 41.1483 52.3125 39.5156 52.3125C37.7468 52.3125 36.1826 52.1904 34.8222 51.9457C33.4613 51.7008 32.346 51.4559 31.4756 51.211V20.8049L35.2712 20.1523V31.539H35.2715ZM35.2715 48.5172C35.6524 48.6263 36.1894 48.7282 36.8836 48.8231C37.5772 48.9186 38.4408 48.9659 39.4754 48.9659C41.5159 48.9659 43.1484 48.2923 44.373 46.9458C45.5972 45.599 46.2095 43.6876 46.2095 41.2114C46.2095 40.1241 46.1004 39.1037 45.8829 38.1505C45.6647 37.1984 45.3117 36.3754 44.8219 35.6814C44.332 34.9874 43.6992 34.4436 42.9241 34.0486C42.1485 33.6547 41.2162 33.4571 40.1283 33.4571C39.094 33.4571 38.1418 33.6344 37.2714 33.9877C36.4003 34.3417 35.7337 34.7089 35.2715 35.0893V48.5172Z" fill="#3C4858"/>
<path d="M71.3499 51.2111C70.4789 51.4291 69.3294 51.6602 67.9009 51.9049C66.4725 52.15 64.8198 52.272 62.9422 52.272C61.3094 52.272 59.9352 52.0335 58.8199 51.5583C57.704 51.0825 56.806 50.4088 56.1264 49.5378C55.4458 48.6668 54.9563 47.6398 54.6569 46.4562C54.3576 45.2727 54.208 43.9607 54.208 42.5177V30.6006H58.004V41.7014C58.004 44.2867 58.4118 46.137 59.2284 47.2522C60.0445 48.3678 61.4181 48.9257 63.3505 48.9257C63.7582 48.9257 64.1801 48.9119 64.6154 48.8843C65.0501 48.8576 65.4586 48.8234 65.8398 48.7823C66.2206 48.7417 66.5676 48.701 66.8806 48.6602C67.193 48.6191 67.4176 48.5719 67.5541 48.5176V30.6006H71.3497V51.2111H71.3499Z" fill="#3C4858"/>
<path d="M76.8174 31.2126C77.6878 30.9951 78.8436 30.7635 80.2866 30.5184C81.7284 30.2737 83.3885 30.1514 85.2655 30.1514C86.9526 30.1514 88.3535 30.39 89.4692 30.8654C90.5845 31.3421 91.4757 32.0081 92.1424 32.8653C92.8086 33.7223 93.2785 34.75 93.5506 35.9468C93.8226 37.1446 93.9591 38.4639 93.9591 39.906V51.8227H90.1631V40.7217C90.1631 39.416 90.0745 38.3005 89.8976 37.3751C89.7207 36.4508 89.4289 35.7019 89.0204 35.1309C88.612 34.5592 88.0679 34.1445 87.3879 33.8859C86.7068 33.6272 85.8636 33.498 84.8576 33.498C84.4496 33.498 84.0269 33.512 83.5924 33.5389C83.1569 33.5663 82.7418 33.6005 82.3477 33.641C81.9521 33.6818 81.5987 33.7298 81.2863 33.7839C80.9734 33.8388 80.7485 33.8796 80.6128 33.9061V51.8227H76.8176V31.2126H76.8174Z" fill="#3C4858"/>
<path d="M102.734 30.5999H110.774V33.7833H102.734V43.5778C102.734 44.6392 102.815 45.5165 102.979 46.2103C103.142 46.9048 103.386 47.4489 103.713 47.8429C104.04 48.2378 104.447 48.5169 104.937 48.6797C105.427 48.8429 105.998 48.925 106.652 48.925C107.821 48.925 108.747 48.796 109.427 48.5371C110.106 48.2788 110.569 48.0948 110.814 47.9863L111.63 51.0882C111.249 51.2787 110.576 51.5235 109.61 51.8221C108.644 52.1213 107.549 52.2712 106.325 52.2712C104.883 52.2712 103.692 52.0878 102.754 51.7204C101.815 51.3528 101.06 50.8021 100.489 50.0679C99.9174 49.3327 99.5156 48.4284 99.2847 47.3536C99.0534 46.2789 98.9375 45.0339 98.9375 43.6191V24.6819L102.733 24.0293V30.5999H102.734Z" fill="#3C4858"/>
<path d="M131.424 51.2111C130.553 51.4291 129.404 51.6602 127.975 51.9049C126.547 52.15 124.894 52.272 123.017 52.272C121.384 52.272 120.01 52.0335 118.895 51.5583C117.779 51.0825 116.881 50.4088 116.2 49.5378C115.52 48.6668 115.03 47.6398 114.731 46.4562C114.431 45.2727 114.282 43.9607 114.282 42.5177V30.6006H118.078V41.7014C118.078 44.2867 118.486 46.137 119.302 47.2522C120.119 48.3678 121.492 48.9257 123.425 48.9257C123.833 48.9257 124.254 48.9119 124.69 48.8843C125.125 48.8576 125.532 48.8234 125.914 48.7823C126.295 48.7417 126.642 48.701 126.955 48.6602C127.268 48.6191 127.492 48.5719 127.628 48.5176V30.6006H131.424V51.2111Z" fill="#3C4858"/>
<path d="M143.503 37.2931C148.237 37.2931 152.074 33.4558 152.074 28.7222C152.074 23.9887 148.237 20.1514 143.503 20.1514C138.77 20.1514 134.933 23.9887 134.933 28.7222C134.933 33.4558 138.77 37.2931 143.503 37.2931Z" fill="#3C4858"/>
<path d="M139.056 28.7221C139.056 29.3308 138.562 29.8242 137.953 29.8242C137.345 29.8242 136.852 29.3308 136.852 28.7221C136.852 28.1136 137.345 27.6203 137.953 27.6203C138.562 27.6203 139.056 28.1136 139.056 28.7221ZM145.325 34.0802C145.629 34.607 146.303 34.7876 146.83 34.4836C147.357 34.1793 147.538 33.5054 147.233 32.9783C146.929 32.4513 146.255 32.2709 145.728 32.5752C145.201 32.8794 145.021 33.5534 145.325 34.0802ZM147.233 24.4661C147.538 23.9391 147.357 23.2652 146.83 22.9613C146.303 22.657 145.629 22.8376 145.325 23.3644C145.021 23.8914 145.201 24.5654 145.728 24.8695C146.255 25.1741 146.929 24.9933 147.233 24.4661ZM143.504 25.5797C145.146 25.5797 146.493 26.8383 146.634 28.4438L148.229 28.4188C148.153 27.2256 147.636 26.1529 146.838 25.3617C146.416 25.5247 145.926 25.5026 145.504 25.2584C145.081 25.0143 144.817 24.6009 144.747 24.1532C144.351 24.0456 143.934 23.9879 143.504 23.9879C142.75 23.9879 142.037 24.1643 141.404 24.478L142.18 25.8715C142.582 25.6847 143.031 25.5797 143.504 25.5797ZM140.361 28.7221C140.361 27.659 140.889 26.7192 141.697 26.1506L140.879 24.7821C139.93 25.4154 139.224 26.3817 138.926 27.5142C139.278 27.7984 139.504 28.2337 139.504 28.7221C139.504 29.2108 139.278 29.6461 138.926 29.9303C139.224 31.063 139.93 32.0293 140.879 32.6627L141.697 31.2941C140.889 30.7254 140.361 29.7856 140.361 28.7221ZM143.504 31.8651C143.031 31.8651 142.582 31.7602 142.18 31.573L141.404 32.9664C142.037 33.2803 142.75 33.4566 143.504 33.4566C143.933 33.4566 144.351 33.3991 144.747 33.2915C144.817 32.8435 145.081 32.4302 145.504 32.1862C145.926 31.9421 146.416 31.92 146.838 32.083C147.635 31.2914 148.153 30.2187 148.229 29.0256L146.634 29.0007C146.493 30.6061 145.146 31.8651 143.504 31.8651Z" fill="white"/>
<path d="M107.614 57.7967H111.19V59.2127H107.614V63.5695C107.614 64.0415 107.65 64.4348 107.723 64.7494C107.796 65.052 107.904 65.294 108.05 65.4756C108.195 65.645 108.376 65.766 108.594 65.8386C108.812 65.9113 109.066 65.9476 109.357 65.9476C109.865 65.9476 110.27 65.8931 110.573 65.7842C110.888 65.6632 111.106 65.5784 111.227 65.53L111.553 66.9279C111.384 67.0126 111.087 67.1154 110.664 67.2365C110.24 67.3696 109.756 67.4361 109.212 67.4361C108.57 67.4361 108.038 67.3575 107.614 67.2002C107.203 67.0307 106.87 66.7826 106.616 66.4559C106.361 66.1291 106.18 65.7297 106.071 65.2577C105.974 64.7736 105.926 64.2169 105.926 63.5876V55.1644L107.614 54.874V57.7967Z" fill="#3C4858"/>
<path d="M121.786 62.5167C121.786 63.267 121.677 63.9447 121.459 64.5499C121.241 65.155 120.933 65.6754 120.533 66.111C120.146 66.5467 119.68 66.8856 119.135 67.1276C118.591 67.3576 117.998 67.4726 117.356 67.4726C116.715 67.4726 116.122 67.3576 115.577 67.1276C115.033 66.8856 114.561 66.5467 114.161 66.111C113.774 65.6754 113.472 65.155 113.254 64.5499C113.036 63.9447 112.927 63.267 112.927 62.5167C112.927 61.7784 113.036 61.1068 113.254 60.5016C113.472 59.8844 113.774 59.358 114.161 58.9223C114.561 58.4866 115.033 58.1538 115.577 57.9239C116.122 57.6818 116.715 57.5608 117.356 57.5608C117.998 57.5608 118.591 57.6818 119.135 57.9239C119.68 58.1538 120.146 58.4866 120.533 58.9223C120.933 59.358 121.241 59.8844 121.459 60.5016C121.677 61.1068 121.786 61.7784 121.786 62.5167ZM120.025 62.5167C120.025 61.4517 119.783 60.6106 119.299 59.9933C118.827 59.364 118.179 59.0494 117.356 59.0494C116.534 59.0494 115.88 59.364 115.396 59.9933C114.924 60.6106 114.688 61.4517 114.688 62.5167C114.688 63.5817 114.924 64.4288 115.396 65.0581C115.88 65.6754 116.534 65.984 117.356 65.984C118.179 65.984 118.827 65.6754 119.299 65.0581C119.783 64.4288 120.025 63.5817 120.025 62.5167Z" fill="#3C4858"/>
<path d="M132.04 66.9641C131.652 67.0609 131.138 67.1637 130.497 67.2727C129.867 67.3816 129.135 67.436 128.3 67.436C127.574 67.436 126.963 67.3332 126.467 67.1274C125.97 66.9096 125.571 66.607 125.268 66.2198C124.966 65.8325 124.748 65.3787 124.615 64.8583C124.482 64.3258 124.415 63.7388 124.415 63.0974V57.7966H126.104V62.7343C126.104 63.884 126.285 64.707 126.648 65.2032C127.011 65.6994 127.622 65.9475 128.482 65.9475C128.663 65.9475 128.851 65.9414 129.044 65.9293C129.238 65.9172 129.42 65.9051 129.589 65.893C129.758 65.8688 129.91 65.8506 130.043 65.8385C130.188 65.8143 130.291 65.7901 130.351 65.7659V57.7966H132.04V66.9641Z" fill="#3C4858"/>
<path d="M139.414 67.4544C138.652 67.4544 137.98 67.3334 137.399 67.0913C136.83 66.8493 136.346 66.5104 135.947 66.0747C135.559 65.6391 135.269 65.1247 135.075 64.5317C134.882 63.9266 134.785 63.261 134.785 62.5348C134.785 61.8087 134.888 61.1431 135.093 60.538C135.311 59.9328 135.614 59.4124 136.001 58.9768C136.388 58.529 136.86 58.1841 137.417 57.942C137.986 57.6879 138.615 57.5608 139.305 57.5608C139.729 57.5608 140.152 57.5971 140.576 57.6697C140.999 57.7423 141.405 57.8573 141.792 58.0146L141.411 59.4487C141.157 59.3277 140.86 59.2309 140.521 59.1583C140.195 59.0857 139.844 59.0494 139.468 59.0494C138.524 59.0494 137.798 59.3459 137.29 59.9389C136.794 60.5319 136.546 61.3972 136.546 62.5348C136.546 63.0431 136.6 63.5091 136.709 63.9326C136.83 64.3562 137.012 64.7193 137.254 65.0218C137.508 65.3244 137.829 65.5604 138.216 65.7298C138.603 65.8872 139.075 65.9658 139.632 65.9658C140.08 65.9658 140.485 65.9235 140.848 65.8387C141.211 65.754 141.496 65.6633 141.701 65.5664L141.937 66.9824C141.84 67.0429 141.701 67.1034 141.52 67.1639C141.338 67.2124 141.132 67.2547 140.903 67.291C140.673 67.3394 140.424 67.3757 140.158 67.3999C139.904 67.4362 139.656 67.4544 139.414 67.4544Z" fill="#3C4858"/>
<path d="M144.113 67.2365V53.4399L145.801 53.1494V57.9782C146.116 57.8572 146.449 57.7664 146.8 57.7059C147.163 57.6333 147.52 57.597 147.871 57.597C148.621 57.597 149.244 57.7059 149.74 57.9238C150.237 58.1295 150.63 58.426 150.92 58.8133C151.223 59.1884 151.435 59.6423 151.556 60.1748C151.677 60.7073 151.737 61.2942 151.737 61.9357V67.2365H150.049V62.2987C150.049 61.7178 150.007 61.2216 149.922 60.8102C149.849 60.3987 149.722 60.0659 149.541 59.8117C149.359 59.5576 149.117 59.376 148.815 59.2671C148.512 59.1461 148.137 59.0856 147.689 59.0856C147.508 59.0856 147.32 59.0977 147.126 59.1219C146.933 59.1461 146.745 59.1763 146.564 59.2127C146.394 59.2369 146.237 59.2671 146.092 59.3034C145.958 59.3397 145.862 59.37 145.801 59.3942V67.2365H144.113Z" fill="#3C4858"/>
</svg>
