<?xml version="1.0" encoding="UTF-8"?>
<svg width="72px" height="72px" viewBox="0 0 72 72" version="1.1" xmlns="http://www.w3.org/2000/svg" xmlns:xlink="http://www.w3.org/1999/xlink">
    <title>ubuntu_logo</title>
    <g id="ubuntu_logo" stroke="none" stroke-width="1" fill="none" fill-rule="evenodd">
        <g transform="translate(8.000000, 8.000000)" fill="#2E2D42" fill-rule="nonzero" id="mark">
            <path d="M28,0 C43.463973,0 56,12.536027 56,28 C56,43.463973 43.463973,56 28,56 C12.536027,56 0,43.463973 0,28 C0,12.536027 12.536027,0 28,0 Z M40.757176,42.6201392 C39.7249644,40.8322963 37.4388585,40.2197361 35.6510156,41.2519477 C33.8631726,42.2841593 33.2506124,44.5702652 34.282824,46.3581081 C35.3150356,48.1459511 37.6011415,48.7585113 39.3889844,47.7262997 C41.1768274,46.6940881 41.7893876,44.4079822 40.757176,42.6201392 Z M44.2092906,29.0069605 L38.8741912,29.0069605 C38.3659518,34.5658868 33.6914547,38.92 28,38.92 C26.471894,38.92 25.0170979,38.6061225 23.6965663,38.039322 L23.4342682,37.9226076 L20.765953,42.5438103 C22.9442753,43.629397 25.4008307,44.24 28,44.24 C29.5022123,44.24 30.9567864,44.0360365 32.3367121,43.6534177 C32.5800921,42.1495651 33.4727774,40.7635391 34.8949689,39.9424364 C36.3158891,39.1220678 37.960893,39.0414024 39.3839978,39.5819824 C42.0883813,36.9235421 43.8659065,33.3252206 44.1874381,29.3161516 L44.2092906,29.0069605 Z M19.0227542,14.4647446 C15.7346181,16.6500068 13.2885518,20.0014914 12.2750822,23.9287458 C13.4559415,24.8914415 14.2100622,26.3576536 14.2100622,28 C14.2100622,29.6423464 13.4559415,31.1085585 12.2744871,32.0710806 C13.2629456,35.9002487 15.6130881,39.1820235 18.7776768,41.3691671 L19.0227039,41.5352407 L21.6908548,36.9140565 C18.9008428,34.9357673 17.08,31.680524 17.08,28 C17.08,24.4012654 18.8208156,21.2091202 21.5062992,19.2197118 L21.6908548,19.0859435 L19.0227542,14.4647446 Z M8.96,24.2620311 C6.89557679,24.2620311 5.22203111,25.9355768 5.22203111,28 C5.22203111,30.0644232 6.89557679,31.7379689 8.96,31.7379689 C11.0244232,31.7379689 12.6979689,30.0644232 12.6979689,28 C12.6979689,25.9355768 11.0244232,24.2620311 8.96,24.2620311 Z M28,11.76 C25.513838,11.76 23.1581584,12.3186613 21.0516699,13.3172901 L20.7659772,13.4561827 L23.4342682,18.0773924 C24.823451,17.4371228 26.3700202,17.08 28,17.08 C33.6211899,17.08 38.2503771,21.3272679 38.8534684,26.7877102 L38.8741912,26.9930395 L44.2092656,26.9926289 C43.9563339,22.859687 42.1576392,19.1446092 39.3840818,16.4190381 C37.960893,16.9585976 36.3158891,16.8779322 34.8949689,16.0575636 C33.4727774,15.2364609 32.5800921,13.8504349 32.3375397,12.3457079 C30.9567864,11.9639635 29.5022123,11.76 28,11.76 Z M39.3889844,8.2737003 C37.6011415,7.24148869 35.3150356,7.85404892 34.282824,9.64189187 C33.2506124,11.4297348 33.8631726,13.7158407 35.6510156,14.7480523 C37.4388585,15.7802639 39.7249644,15.1677037 40.757176,13.3798608 C41.7893876,11.5920178 41.1768274,9.3059119 39.3889844,8.2737003 Z"></path>
        </g>
    </g>
</svg>